 <svg viewBox="0 0 60 75" xmlns="http://www.w3.org/2000/svg">
    <rect width="56.25" height="75" rx="6" fill="#fff" />
    <path
      d="m45.75 16.5h-35.25v-0.75h35.25v0.75zm-17.25 5.9999h-18v-0.75h18v0.75zm-18 5.9999h24.75v-0.75h-24.75v0.75zm35.25 12h-35.25v-0.75h35.25v0.75zm-35.25 6.0001h24.75v-0.75h-24.75v0.75zm32.25 5.9999h-32.25v-0.75h32.25v0.75zm-32.25 5.9999h20.25v-0.75h-20.25v0.75z"
      clip-rule="evenodd"
      fill-rule="evenodd"
    />
    <mask id="a" fill="white">
      <path
        d="m48 9.7498h3.75v3.75h-1.4999v17.25h1.4999v3.75h-3.75v-1.5001h-39.75v1.5001h-3.75v-3.75h1.5v-17.25h-1.5v-3.75h3.75v1.4998h39.75v-1.5001zm-41.25 3.7503h1.5v-1.5002h39.75v1.4999h1.5001v17.25h-1.5001v1.4999h-39.75v-1.4999h-1.5v-17.25z"
        clip-rule="evenodd"
        fill-rule="evenodd"
      />
    </mask>
    <path
      d="m48 9.7498h3.75v3.75h-1.4999v17.25h1.4999v3.75h-3.75v-1.5001h-39.75v1.5001h-3.75v-3.75h1.5v-17.25h-1.5v-3.75h3.75v1.4998h39.75v-1.5001zm-41.25 3.7503h1.5v-1.5002h39.75v1.4999h1.5001v17.25h-1.5001v1.4999h-39.75v-1.4999h-1.5v-17.25z"
      clip-rule="evenodd"
      fill="#fff"
      fill-rule="evenodd"
    />
    <path
      d="m51.75 9.7498h0.75v-0.75h-0.75v0.75zm-3.75 0v-0.75h-0.75v0.75h0.75zm3.75 3.75v0.75h0.75v-0.75h-0.75zm-1.4999 0v-0.75h-0.75v0.75h0.75zm0 17.25h-0.75v0.75h0.75v-0.75zm1.4999 0h0.75v-0.75h-0.75v0.75zm0 3.75v0.75h0.75v-0.75h-0.75zm-3.75 0h-0.75v0.75h0.75v-0.75zm0-1.5001h0.75v-0.75h-0.75v0.75zm-39.75 0v-0.75h-0.75v0.75h0.75zm0 1.5001v0.75h0.75v-0.75h-0.75zm-3.75 0h-0.75v0.75h0.75v-0.75zm0-3.75v-0.75h-0.75v0.75h0.75zm1.5 0v0.75h0.75v-0.75h-0.75zm0-17.25h0.75v-0.75h-0.75v0.75zm-1.5 0h-0.75v0.75h0.75v-0.75zm0-3.75v-0.75h-0.75v0.75h0.75zm3.75 0h0.75v-0.75h-0.75v0.75zm0 1.4998h-0.75v0.75h0.75v-0.75zm39.75 0v0.75h0.75v-0.75h-0.75zm-39.75 2.2502v0.75h0.75v-0.75h-0.75zm-1.5 0v-0.75h-0.75v0.75h0.75zm1.5-1.5002v-0.75h-0.75v0.75h0.75zm39.75 0h0.75v-0.75h-0.75v0.75zm0 1.4999h-0.75v0.75h0.75v-0.75zm1.5001 0h0.75v-0.75h-0.75v0.75zm0 17.25v0.75h0.75v-0.75h-0.75zm-1.5001 0v-0.75h-0.75v0.75h0.75zm0 1.4999v0.75h0.75v-0.75h-0.75zm-39.75 0h-0.75v0.75h0.75v-0.75zm0-1.4999h0.75v-0.75h-0.75v0.75zm-1.5 0h-0.75v0.75h0.75v-0.75zm45-21.75h-3.75v1.5h3.75v-1.5zm0.75 4.5v-3.75h-1.5v3.75h1.5zm-2.2499 0.75h1.4999v-1.5h-1.4999v1.5zm0.75 16.5v-17.25h-1.5v17.25h1.5zm0.7499-0.75h-1.4999v1.5h1.4999v-1.5zm0.75 4.5v-3.75h-1.5v3.75h1.5zm-4.5 0.75h3.75v-1.5h-3.75v1.5zm-0.75-2.2501v1.5001h1.5v-1.5001h-1.5zm-39 0.75h39.75v-1.5h-39.75v1.5zm0.75 0.7501v-1.5001h-1.5v1.5001h1.5zm-4.5 0.75h3.75v-1.5h-3.75v1.5zm-0.75-4.5v3.75h1.5v-3.75h-1.5zm2.25-0.75h-1.5v1.5h1.5v-1.5zm-0.75-16.5v17.25h1.5v-17.25h-1.5zm0.75-0.75h-1.5v1.5h1.5v-1.5zm-0.74995 0.75v-3.75h-1.5v3.75h1.5zm-0.75-3h3.75v-1.5h-3.75v1.5zm3-0.74997v1.4998h1.5v-1.4998h-1.5zm40.5 0.74977h-39.75v1.5h39.75v-1.5zm-0.75-0.75008v1.5001h1.5v-1.5001h-1.5zm-39 3.0003h-1.5v1.5h1.5v-1.5zm-0.75-0.7502v1.5002h1.5v-1.5002h-1.5zm40.5-0.75h-39.75v1.5h39.75v-1.5zm0.75 2.2499v-1.4999h-1.5v1.4999h1.5zm0.7501-0.75h-1.5001v1.5h1.5001v-1.5zm0.75 18v-17.25h-1.5v17.25h1.5zm-2.2501 0.75h1.5001v-1.5h-1.5001v1.5zm0.75 0.7499v-1.4999h-1.5v1.4999h1.5zm-40.5 0.75h39.75v-1.5h-39.75v1.5zm-0.75-2.2499v1.4999h1.5v-1.4999h-1.5zm-0.75002 0.75h1.5v-1.5h-1.5v1.5zm-0.75-18v17.25h1.5v-17.25h-1.5z"
      fill="#05A3BA"
      mask="url(#a)"
    />
    <path d="m53.625 40.875-1.125-6 6 1.125-1.6875 1.6875 3.1875 3.1875-1.125 1.125-3.1875-3.1875-2.0625 2.0625z" />
  </svg>
