<svg xmlns="http://www.w3.org/2000/svg" width="59" height="58" viewBox="0 0 59 58" fill="none">
<g clip-path="url(#clip0_1055_79671)">
<path fill-rule="evenodd" clip-rule="evenodd" d="M15.7504 17.7001C19.0328 17.7001 41.6709 17.8355 44.6855 18.0861C45.7848 18.1775 46.5434 18.6575 47.0707 19.3597C47.6316 20.1068 48.0004 21.2138 48.0004 22.5544V36.7527C48.0004 39.4736 46.6209 41.0617 44.6749 41.2207C42.0067 41.4397 21.292 41.5679 16.9247 41.5949C16.7411 41.596 16.5865 41.597 16.4632 41.5978L15.4783 41.604L9.40039 47.6797V41.4551L6.42431 41.2206C6.42359 41.2205 6.42286 41.2205 6.42214 41.2204C4.13779 41.0341 2.40039 39.0857 2.40039 36.7527V22.5521C2.40039 20.2228 4.1331 18.2757 6.41562 18.0838C9.52033 17.8271 12.6351 17.6991 15.7504 17.7001ZM6.2164 15.6921C2.62539 15.9931 0.000392914 19.0404 0.000392914 22.5521V36.7527C0.000392914 40.2691 2.63239 43.3211 6.23039 43.6127L7.00039 43.6734V49.2501C7.00069 49.596 7.1035 49.934 7.29581 50.2215C7.48812 50.509 7.76132 50.7331 8.0809 50.8654C8.40048 50.9977 8.75211 51.0324 9.09138 50.965C9.43064 50.8976 9.74232 50.7312 9.98706 50.4867L16.4784 43.9977C16.6096 43.9969 16.7794 43.9959 16.9843 43.9946C21.3975 43.9675 42.0987 43.8402 44.8704 43.6127C48.4684 43.3187 50.4004 40.2691 50.4004 36.7527V22.5544C50.4004 19.0404 48.4777 15.9931 44.8844 15.6944C41.7414 15.4331 18.9611 15.3001 15.7504 15.3001C12.5683 15.299 9.38762 15.4298 6.2164 15.6921Z" fill="#090B19"/>
<path d="M54.2521 10.1982L52.5633 8.95002L51.1806 10.8207L53.1825 12.0055L54.2521 10.1982ZM54.2521 13.4014L53.1825 11.5942L51.1806 12.779L52.5633 14.6497L54.2521 13.4014ZM54.4761 15.227L52.5386 14.4168L52.5386 14.4169L54.4761 15.227ZM53.0201 16.3582L52.7331 14.2779L50.4153 14.5976L50.9828 16.8676L53.0201 16.3582ZM52.5385 18.139L54.0054 19.6418L54.0233 19.6243L54.0407 19.6064L52.5385 18.139ZM50.7577 18.6318L51.267 16.5945L49.0081 16.0298L48.6788 18.3349L50.7577 18.6318ZM49.6265 20.0766L48.8163 18.1392L48.8163 18.1392L49.6265 20.0766ZM47.8009 19.8526L49.0668 18.1771L47.2191 16.7811L46.0099 18.7561L47.8009 19.8526ZM44.5977 19.8526L46.4049 18.7831L45.2075 16.7599L43.3317 18.1771L44.5977 19.8526ZM42.7721 20.0766L43.595 18.1446L43.5825 18.1393L43.5699 18.1341L42.7721 20.0766ZM41.6409 18.6318L43.7198 18.3349L43.3905 16.0298L41.1315 16.5945L41.6409 18.6318ZM39.8601 18.139L38.3751 19.624L38.3751 19.624L39.8601 18.139ZM39.3785 16.3582L41.4158 16.8676L41.9832 14.5976L39.6654 14.2779L39.3785 16.3582ZM37.9225 15.227L35.985 16.0372L35.985 16.0372L37.9225 15.227ZM38.1465 13.4014L39.8352 14.6497L41.2179 12.779L39.216 11.5942L38.1465 13.4014ZM38.1465 10.1982L39.243 11.9892L41.1972 10.7927L39.8352 8.95002L38.1465 10.1982ZM37.9225 8.37264L35.985 7.56245L35.985 7.56245L37.9225 8.37264ZM39.3785 7.24144L39.6654 9.32175L41.9832 9.00205L41.4158 6.73212L39.3785 7.24144ZM39.8601 5.46064L38.3751 3.97572L38.3664 3.98445L38.3578 3.99329L39.8601 5.46064ZM41.6409 4.97904L41.1315 7.01634L43.396 7.58247L43.7205 5.27092L41.6409 4.97904ZM42.7721 3.52304L43.5699 5.46559L43.5825 5.46042L43.595 5.45509L42.7721 3.52304ZM44.5977 3.74704L43.3317 5.42256L45.2075 6.83981L46.4049 4.81662L44.5977 3.74704ZM47.8009 3.74704L45.9936 4.81662L47.174 6.81093L49.0427 5.44049L47.8009 3.74704ZM49.6265 3.52304L50.4366 1.58563L50.4277 1.5819L50.4188 1.57825L49.6265 3.52304ZM50.7577 4.97904L48.678 5.27092L49.0025 7.58247L51.267 7.01634L50.7577 4.97904ZM52.5273 5.46064L54.0122 3.97572L54.0122 3.97572L52.5273 5.46064ZM53.0201 7.24144L50.9828 6.73212L50.4153 9.00205L52.7331 9.32175L53.0201 7.24144ZM54.4761 8.37264L52.5386 9.18283L52.5386 9.18284L54.4761 8.37264ZM50.6269 9.65466L52.5052 8.71551L51.2478 6.2006L49.1932 8.1202L50.6269 9.65466ZM45.0217 14.8918L43.588 13.3573L43.5672 13.3767L43.547 13.3967L45.0217 14.8918ZM50.6277 9.65615L48.7494 10.5953L50.0463 13.1891L52.106 11.1477L50.6277 9.65615ZM50.6583 8.73626L52.207 7.31805L52.1758 7.28395L52.1431 7.25125L50.6583 8.73626ZM50.6538 8.73178L49.1666 10.2145L49.1689 10.2168L50.6538 8.73178ZM49.7332 8.69818L48.3559 7.11284L48.3271 7.13793L48.2991 7.16405L49.7332 8.69818ZM44.5946 13.5015L43.1101 14.9868L44.5458 16.4217L46.0286 15.0356L44.5946 13.5015ZM43.1722 12.0798L44.6567 10.5945L44.6524 10.5902L43.1722 12.0798ZM42.2501 12.0798L43.726 13.5737L43.7329 13.5669L43.7397 13.56L42.2501 12.0798ZM42.2486 13.0012L43.7344 11.5172L43.7335 11.5163L42.2486 13.0012ZM44.119 14.8739L42.6332 16.3579L42.634 16.3588L44.119 14.8739ZM57.2593 11.7998C57.2593 10.3774 56.5019 9.08958 55.3216 8.39103L53.1825 12.0055C53.0998 11.9565 53.0593 11.8783 53.0593 11.7998H57.2593ZM55.3216 15.2087C56.5019 14.5101 57.2593 13.2223 57.2593 11.7998H53.0593C53.0593 11.7214 53.0998 11.6432 53.1825 11.5942L55.3216 15.2087ZM56.4135 16.0372C56.9661 14.7157 56.7457 13.2422 55.9408 12.1532L52.5633 14.6497C52.52 14.5911 52.5012 14.5064 52.5386 14.4168L56.4135 16.0372ZM53.307 18.4385C54.7067 18.2455 55.8747 17.3257 56.4135 16.0372L52.5386 14.4169C52.549 14.392 52.5706 14.3597 52.6071 14.3314C52.6437 14.303 52.6884 14.2841 52.7331 14.2779L53.307 18.4385ZM54.0407 19.6064C55.0325 18.591 55.3867 17.1662 55.0574 15.8489L50.9828 16.8676C50.9754 16.8381 50.9746 16.8027 50.9844 16.7656C50.9947 16.7267 51.0148 16.6936 51.0362 16.6717L54.0407 19.6064ZM50.2483 20.6691C51.6019 21.0075 53.0281 20.5958 54.0054 19.6418L51.0715 16.6363C51.0955 16.6129 51.1209 16.5997 51.1458 16.5928C51.1708 16.5859 51.2122 16.5809 51.267 16.5945L50.2483 20.6691ZM50.4366 22.0141C51.729 21.4736 52.6415 20.2943 52.8366 18.9288L48.6788 18.3349C48.6874 18.2747 48.7095 18.2323 48.7308 18.2049C48.753 18.1763 48.7823 18.1534 48.8163 18.1392L50.4366 22.0141ZM46.5349 21.5282C47.6296 22.3552 49.1249 22.5626 50.4367 22.0141L48.8163 18.1392C48.8625 18.1199 48.9051 18.1168 48.9389 18.1211C48.9708 18.1252 49.0157 18.1385 49.0668 18.1771L46.5349 21.5282ZM46.1993 22.8598C47.6412 22.8598 48.895 22.0874 49.5918 20.9492L46.0099 18.7561C46.0228 18.7351 46.044 18.7119 46.0772 18.6927C46.1128 18.6722 46.1569 18.6598 46.1993 18.6598V22.8598ZM42.7904 20.9222C43.489 22.1025 44.7768 22.8598 46.1993 22.8598V18.6598C46.2777 18.6598 46.3559 18.7004 46.4049 18.7831L42.7904 20.9222ZM41.9491 22.0087C43.2604 22.5672 44.7721 22.3528 45.8636 21.5282L43.3317 18.1771C43.3872 18.1352 43.4309 18.1242 43.4565 18.121C43.484 18.1175 43.532 18.1178 43.595 18.1446L41.9491 22.0087ZM39.562 18.9288C39.7547 20.2777 40.6446 21.4731 41.9742 22.0192L43.5699 18.1341C43.6452 18.165 43.7063 18.2404 43.7198 18.3349L39.562 18.9288ZM38.3751 19.624C39.358 20.6068 40.8102 21.0041 42.1502 20.6691L41.1315 16.5945C41.1868 16.5807 41.2246 16.5862 41.2462 16.5921C41.268 16.5981 41.3041 16.6132 41.345 16.6541L38.3751 19.624ZM37.3412 15.8489C37.0153 17.1525 37.3551 18.604 38.3751 19.624L41.345 16.6541C41.3834 16.6926 41.4052 16.7362 41.4147 16.7721C41.4235 16.8057 41.4233 16.8374 41.4158 16.8676L37.3412 15.8489ZM35.985 16.0372C36.5239 17.3257 37.6919 18.2455 39.0915 18.4385L39.6654 14.2779C39.7101 14.2841 39.7548 14.303 39.7914 14.3314C39.8279 14.3597 39.8495 14.392 39.8599 14.4169L35.985 16.0372ZM36.4577 12.1532C35.6528 13.2422 35.4324 14.7157 35.985 16.0372L39.8599 14.4169C39.8973 14.5064 39.8785 14.5911 39.8352 14.6497L36.4577 12.1532ZM35.1393 11.7998C35.1393 13.2223 35.8966 14.5101 37.0769 15.2087L39.216 11.5942C39.2987 11.6432 39.3393 11.7214 39.3393 11.7998H35.1393ZM37.0499 8.40725C35.9117 9.10413 35.1393 10.3579 35.1393 11.7998H39.3393C39.3393 11.8422 39.3269 11.8862 39.3064 11.9219C39.2872 11.9551 39.264 11.9763 39.243 11.9892L37.0499 8.40725ZM35.985 7.56245C35.4324 8.88403 35.6528 10.3575 36.4577 11.4465L39.8352 8.95002C39.8785 9.00858 39.8973 9.09326 39.8599 9.18284L35.985 7.56245ZM39.0915 5.16114C37.6919 5.3542 36.5239 6.27396 35.985 7.56245L39.8599 9.18284C39.8495 9.20769 39.8279 9.23998 39.7914 9.26828C39.7548 9.29672 39.7101 9.31558 39.6654 9.32175L39.0915 5.16114ZM38.3578 3.99329C37.366 5.00869 37.0118 6.43346 37.3412 7.75077L41.4158 6.73212C41.4231 6.76156 41.4239 6.79694 41.4141 6.83407C41.4038 6.87297 41.3837 6.90611 41.3623 6.928L38.3578 3.99329ZM42.1502 2.94174C40.8367 2.61338 39.377 2.97388 38.3751 3.97572L41.345 6.94557C41.2969 6.99363 41.2532 7.01136 41.2291 7.01778C41.2059 7.02397 41.1746 7.0271 41.1315 7.01634L42.1502 2.94174ZM41.9742 1.5805C40.6385 2.1291 39.7518 3.32978 39.5612 4.68717L43.7205 5.27092C43.715 5.30967 43.6991 5.34984 43.6714 5.38595C43.6423 5.4239 43.6048 5.45127 43.5699 5.46559L41.9742 1.5805ZM45.8636 2.07152C44.7721 1.24685 43.2604 1.03251 41.9491 1.59099L43.595 5.45509C43.532 5.48193 43.484 5.48222 43.4565 5.47871C43.4309 5.47544 43.3872 5.46448 43.3317 5.42256L45.8636 2.07152ZM46.1993 0.739844C44.7768 0.739844 43.489 1.49717 42.7904 2.67747L46.4049 4.81662C46.3559 4.89932 46.2777 4.93984 46.1993 4.93984V0.739844ZM49.6081 2.67747C48.9095 1.49717 47.6217 0.739844 46.1993 0.739844V4.93984C46.1208 4.93984 46.0426 4.89932 45.9936 4.81662L49.6081 2.67747ZM50.4188 1.57825C49.1261 1.05159 47.6406 1.26039 46.559 2.05359L49.0427 5.44049C48.9898 5.47931 48.9544 5.48552 48.942 5.48711C48.9278 5.48893 48.8909 5.49098 48.8341 5.46784L50.4188 1.57825ZM52.8373 4.68717C52.6444 3.31307 51.7351 2.12862 50.4366 1.58563L48.8163 5.46046C48.7498 5.43267 48.6917 5.36822 48.678 5.27092L52.8373 4.68717ZM54.0122 3.97572C53.0154 2.97898 51.569 2.61157 50.2483 2.94174L51.267 7.01634C51.2253 7.02676 51.1895 7.02472 51.1592 7.01655C51.128 7.00815 51.085 6.98827 51.0423 6.94557L54.0122 3.97572ZM55.0574 7.75077C55.3875 6.43009 55.0313 4.99486 54.0122 3.97572L51.0423 6.94557C51.0206 6.92383 50.9974 6.88761 50.9854 6.84272C50.9739 6.80019 50.9754 6.7616 50.9828 6.73212L55.0574 7.75077ZM56.4135 7.56245C55.8747 6.27396 54.7067 5.3542 53.307 5.16114L52.7331 9.32175C52.6884 9.31558 52.6437 9.29672 52.6071 9.26828C52.5706 9.23997 52.549 9.20769 52.5386 9.18283L56.4135 7.56245ZM55.9408 11.4465C56.7457 10.3575 56.9661 8.88402 56.4135 7.56245L52.5386 9.18284C52.5012 9.09326 52.52 9.00858 52.5633 8.95002L55.9408 11.4465ZM49.1932 8.1202L43.588 13.3573L46.4554 16.4262L52.0606 11.1891L49.1932 8.1202ZM52.506 8.717L52.5052 8.71551L48.7486 10.5938L48.7494 10.5953L52.506 8.717ZM49.1095 10.1545C48.5616 9.55613 48.6246 8.68472 49.1494 8.16464L52.106 11.1477C53.1369 10.1258 53.2253 8.43009 52.207 7.31805L49.1095 10.1545ZM49.1689 10.2168L49.1734 10.2213L52.1431 7.25125L52.1386 7.24677L49.1689 10.2168ZM51.1104 10.2835C50.5372 10.7814 49.6915 10.7409 49.1666 10.2145L52.1409 7.24909C51.1203 6.22535 49.4637 6.15053 48.3559 7.11284L51.1104 10.2835ZM46.0286 15.0356L51.1672 10.2323L48.2991 7.16405L43.1606 11.9674L46.0286 15.0356ZM41.6877 13.5651L43.1101 14.9868L46.0791 12.0162L44.6567 10.5945L41.6877 13.5651ZM42.7108 13.9939C42.3545 13.9939 41.9832 13.8588 41.692 13.5694L44.6524 10.5902C44.1238 10.0649 43.4164 9.79391 42.7108 9.79391V13.9939ZM42.7093 13.9939H42.7108V9.79391H42.7093V13.9939ZM43.7397 13.56C43.4437 13.858 43.0673 13.9939 42.7093 13.9939V9.79391C42.0018 9.79391 41.2894 10.0672 40.7604 10.5997L43.7397 13.56ZM44.1574 12.5413C44.1574 12.9259 44.0021 13.3009 43.726 13.5737L40.7741 10.586C40.2487 11.1051 39.9574 11.8072 39.9574 12.5413H44.1574ZM43.7335 11.5163C44.0016 11.7844 44.1574 12.154 44.1574 12.5413H39.9574C39.9574 13.2749 40.2491 13.9716 40.7637 14.4861L43.7335 11.5163ZM45.6048 13.3898L43.7344 11.5172L40.7628 14.4853L42.6332 16.3579L45.6048 13.3898ZM44.5737 12.9665C44.9894 12.9665 45.3471 13.1321 45.6039 13.3889L42.634 16.3588C43.1328 16.8575 43.8309 17.1665 44.5737 17.1665V12.9665ZM43.547 13.3967C43.7177 13.2284 43.8982 13.1254 44.0553 13.064C44.2144 13.0017 44.3888 12.9665 44.5737 12.9665V17.1665C45.2442 17.1665 45.9588 16.9171 46.4964 16.3868L43.547 13.3967Z" fill="white"/>
<mask id="mask0_1055_79671" style="mask-type:alpha" maskUnits="userSpaceOnUse" x="37" y="2" width="19" height="19">
<path d="M55.1593 11.7998C55.1593 11.1278 54.8009 10.523 54.2521 10.1982C54.6329 9.68304 54.7337 8.98864 54.4761 8.37264C54.2185 7.75664 53.6697 7.33104 53.0201 7.24144C53.1769 6.61424 53.0089 5.94224 52.5273 5.46064C52.0681 5.00144 51.3849 4.82224 50.7577 4.97904C50.6681 4.34064 50.2425 3.78064 49.6265 3.52304C49.0217 3.27664 48.3049 3.37744 47.8009 3.74704C47.4761 3.19824 46.8713 2.83984 46.1993 2.83984C45.5273 2.83984 44.9225 3.19824 44.5977 3.74704C44.0937 3.36624 43.3769 3.26544 42.7721 3.52304C42.1449 3.78064 41.7305 4.34064 41.6409 4.97904C41.0137 4.82224 40.3193 5.00144 39.8601 5.46064C39.3897 5.94224 39.2217 6.61424 39.3785 7.24144C38.7289 7.33104 38.1801 7.75664 37.9225 8.37264C37.6649 8.98864 37.7657 9.68304 38.1465 10.1982C37.5977 10.5342 37.2393 11.1278 37.2393 11.7998C37.2393 12.4718 37.5977 13.0766 38.1465 13.4014C37.7657 13.9166 37.6649 14.611 37.9225 15.227C38.1801 15.843 38.7289 16.2686 39.3785 16.3582C39.2217 16.9854 39.3897 17.6686 39.8601 18.139C40.3193 18.5982 41.0137 18.7886 41.6409 18.6318C41.7305 19.259 42.1449 19.819 42.7721 20.0766C43.3769 20.3342 44.0937 20.2334 44.5977 19.8526C44.9225 20.4014 45.5273 20.7598 46.1993 20.7598C46.8713 20.7598 47.4649 20.4014 47.8009 19.8526C48.3049 20.2334 49.0105 20.3342 49.6265 20.0766C50.2425 19.819 50.6681 19.259 50.7577 18.6318C51.3849 18.7886 52.0681 18.5982 52.5385 18.139C53.0089 17.6574 53.1769 16.9854 53.0201 16.3582C53.6697 16.2686 54.2185 15.843 54.4761 15.227C54.7337 14.611 54.6329 13.9166 54.2521 13.4014C54.8009 13.0766 55.1593 12.4718 55.1593 11.7998Z" fill="white"/>
</mask>
<g mask="url(#mask0_1055_79671)">
<rect x="37.2393" y="2.83984" width="17.92" height="17.92" fill="#090B19"/>
</g>
<path d="M50.3517 8.76786C50.7891 9.20525 50.7891 9.91439 50.3517 10.3518L45.8717 14.8318C45.4343 15.2692 44.7252 15.2692 44.2878 14.8318L42.0478 12.5918C41.6104 12.1544 41.6104 11.4452 42.0478 11.0079C42.4852 10.5705 43.1943 10.5705 43.6317 11.0079L45.0797 12.4559L48.7678 8.76786C49.2052 8.33047 49.9143 8.33047 50.3517 8.76786Z" fill="white"/>
<path d="M17.1995 36.6259L18.4398 35.2851L16.9146 33.8772C17.8867 32.7207 18.423 31.162 18.423 29.3854C18.423 25.6479 16.0766 22.8824 12.2887 22.8824C8.5009 22.8824 6.1377 25.6479 6.1377 29.3854C6.1377 33.1062 8.5009 35.8717 12.2887 35.8717C13.529 35.8717 14.6017 35.5868 15.5067 35.0504L17.1995 36.6259ZM12.3055 33.5755C10.1434 33.5755 9.05399 31.7319 9.05399 29.3854C9.05399 27.0222 10.1434 25.1954 12.3055 25.1954C14.4508 25.1954 15.5235 27.0222 15.5235 29.3854C15.5235 30.4413 15.3391 31.3632 14.9536 32.0671L13.3614 30.5922L12.1211 31.933L13.6296 33.3241C13.2441 33.4917 12.8083 33.5755 12.3055 33.5755Z" fill="#375FFF"/>
<path d="M27.5046 35.2683L27.756 35.57H30.974L28.8454 32.8884C29.5829 31.8157 30.0186 30.6089 30.136 29.3519H27.8398C27.756 29.9721 27.6219 30.5922 27.3873 31.162C27.0688 30.7095 26.5325 29.9721 26.1973 29.5698L25.7112 28.9497C26.985 28.3295 28.0242 27.4748 28.0242 25.9161C28.0242 24.0892 26.5995 23.0165 24.6721 23.0165C22.6106 23.0165 21.2362 24.2568 21.2362 25.9831C21.2362 26.9887 21.6553 27.7932 22.2754 28.5139C20.7334 29.2514 19.4597 30.2402 19.4597 32.1677C19.4597 34.38 21.1357 35.8046 23.9179 35.8046C25.1246 35.8046 26.2141 35.3521 27.1024 34.6985L27.5046 35.2683ZM23.9514 33.6761C22.9626 33.6761 22.1748 33.0392 22.1748 32.1174C22.1748 31.3129 22.5603 30.5922 23.4486 30.0223L25.8286 33.0895C25.2922 33.4582 24.6553 33.6761 23.9514 33.6761ZM23.6665 25.9161C23.6665 25.2792 24.0687 24.8602 24.6889 24.8602C25.2755 24.8602 25.6945 25.3127 25.6945 25.9328C25.6945 26.5697 25.4263 27.1228 24.6386 27.5921C24.052 27.0558 23.6665 26.553 23.6665 25.9161Z" fill="#375FFF"/>
<path d="M36.5116 28.8156C36.9138 27.5921 37.3496 25.4971 37.3496 25.4971H37.3831C37.3831 25.4971 37.6513 27.106 38.1876 28.8156L38.9418 31.1453H35.7406L36.5116 28.8156ZM40.3832 35.57H43.4L38.8915 23.1003H35.925L31.4332 35.57H34.2992L35.0869 33.19H39.6122L40.3832 35.57Z" fill="#375FFF"/>
</g>
<defs>
<clipPath id="clip0_1055_79671">
<rect width="58.8" height="50.4" fill="white" transform="translate(0 0.599976)"/>
</clipPath>
</defs>
</svg>